# xmcd
#
# Track frame offsets: 
#        150
#        2498
#        17380
#        29735
#        49975
#        52034
#        73563
#        91488
#        100217
#        119247
#        127809
#        153437
#        190662
#        196187
#        312998
#
# Disc length: 4353 seconds
#
# Revision: 1
# Processed by: cddbd v1.5.2PL0 Copyright (c) Steve Scherf et al.
# Submitted via: ExactAudioCopy v1.0b3
#
DISCID=c710ff0f
DTITLE=The Waterboys - Fisherman's Box 3
DYEAR=2013
DGENRE=Blues
TTITLE0=Steve and Anto's Overture
TTITLE1=Ain't Leavin I'm Gone
TTITLE2=When Will We Be Married
TTITLE3=When I First Said I Love Only You Maggie
TTITLE4=Love Is Letting Go
TTITLE5=On My Way To Heaven 1st  version
TTITLE6=You In The Sky 1st version
TTITLE7=The Secret Place Of The Most High
TTITLE8=Too Hot For Cleanhead
TTITLE9=Wickham's Proclamation
TTITLE10=Blues For Your Baby
TTITLE11=Lonesome Old Wind
TTITLE12=If Jimi Was Here
TTITLE13=Soon As I Get Home
TTITLE14=Sgt Pepper's Lonely Hearts Club Band 
EXTD=
EXTT0=
EXTT1=
EXTT2=
EXTT3=
EXTT4=
EXTT5=
EXTT6=
EXTT7=
EXTT8=
EXTT9=
EXTT10=
EXTT11=
EXTT12=
EXTT13=
EXTT14=
PLAYORDER=
